<svg width="160" height="160" viewBox="0 0 160 160" fill="none" xmlns="http://www.w3.org/2000/svg">
<g clip-path="url(#clip0_203_32)">
<path d="M136 0H24C10.7452 0 0 10.7452 0 24V136C0 149.255 10.7452 160 24 160H136C149.255 160 160 149.255 160 136V24C160 10.7452 149.255 0 136 0Z" fill="url(#paint0_radial_203_32)"/>
<path d="M110.207 91.6952C120.447 84.5678 123.799 70.0309 117.601 58.6083C114.496 52.8763 109.475 48.7729 103.471 47.0616C97.9094 45.4706 92.0964 46.1213 86.9834 48.8707L80 36L65.5063 62.7268L32 124.5H128L110.207 91.6952ZM101.831 53.606C106.194 54.8434 109.829 57.826 112.092 61.9821C116.54 70.1739 114.228 80.5584 107.018 85.8052L90.1728 54.7494C93.8007 52.8914 97.8952 52.4851 101.831 53.6022V53.606ZM80 49.5665L116.961 117.719H95.3352L69.1836 69.5081L80 49.5665ZM43.0391 117.715L65.5028 76.3046L87.9664 117.715H43.0391Z" fill="white"/>
<path d="M110.207 91.6952C120.447 84.5678 123.799 70.0309 117.601 58.6083C114.496 52.8763 109.475 48.7729 103.471 47.0616C97.9094 45.4706 92.0964 46.1213 86.9834 48.8707L80 36L65.5063 62.7268L32 124.5H128L110.207 91.6952ZM101.831 53.606C106.194 54.8434 109.829 57.826 112.092 61.9821C116.54 70.1739 114.228 80.5584 107.018 85.8052L90.1728 54.7494C93.8007 52.8914 97.8952 52.4851 101.831 53.6022V53.606ZM80 49.5665L116.961 117.719H95.3352L69.1836 69.5081L80 49.5665ZM43.0391 117.715L65.5028 76.3046L87.9664 117.715H43.0391Z" stroke="black"/>
</g>
<defs>
<radialGradient id="paint0_radial_203_32" cx="0" cy="0" r="1" gradientUnits="userSpaceOnUse" gradientTransform="translate(158 1.5) rotate(0.148661) scale(225.435)">
<stop offset="0.05" stop-color="#F0B336"/>
<stop offset="0.88" stop-color="#84621E"/>
</radialGradient>
<clipPath id="clip0_203_32">
<rect width="160" height="160" fill="white"/>
</clipPath>
</defs>
</svg>
