<svg width="512" height="512" viewBox="0 0 512 512" fill="none" xmlns="http://www.w3.org/2000/svg">
<rect width="512" height="512" rx="48" fill="white"/>
<rect width="512" height="512" rx="48" fill="white"/>
<path d="M381.87 289.981C424.54 262.089 438.502 205.196 412.68 160.48C399.741 138.051 378.826 121.988 353.804 115.281C330.621 109.057 306.408 111.602 285.097 122.369L256 72L195.602 176.606L56 418.373H456L381.87 289.981ZM346.962 140.905C365.149 145.749 380.285 157.428 389.711 173.689C408.24 205.743 398.615 246.399 368.566 266.934L298.385 145.392C313.504 138.122 330.558 136.537 346.962 140.905ZM256 125.088L410 391.821H319.894L210.927 203.15L255.992 125.096L256 125.088ZM102 391.821L195.594 229.75L289.188 391.821H102Z" fill="#665DF4"/>
</svg>
