<svg width="96" height="89" viewBox="0 0 96 89" fill="none" xmlns="http://www.w3.org/2000/svg">
<path d="M78.2073 55.6952C88.4473 48.5678 91.7993 34.0309 85.6009 22.6083C82.4963 16.8763 77.4754 12.7729 71.4714 11.0616C65.9094 9.47059 60.0964 10.1213 54.9834 12.8707L48 0L33.5063 26.7268L0 88.5H96L78.2073 55.6952ZM69.8307 17.606C74.194 18.8434 77.8289 21.826 80.0919 25.9821C84.5401 34.1739 82.2276 44.5584 75.0179 49.8052L58.1728 18.7494C61.8007 16.8914 65.8952 16.4851 69.8307 17.6022V17.606ZM48 13.5665L84.9609 81.7186H63.3352L37.1836 33.5081L48 13.5665ZM11.0391 81.7149L33.5028 40.3046L55.9664 81.7149H11.0391Z" fill="white"/>
<path d="M78.2073 55.6952C88.4473 48.5678 91.7993 34.0309 85.6009 22.6083C82.4963 16.8763 77.4754 12.7729 71.4714 11.0616C65.9094 9.47059 60.0964 10.1213 54.9834 12.8707L48 0L33.5063 26.7268L0 88.5H96L78.2073 55.6952ZM69.8307 17.606C74.194 18.8434 77.8289 21.826 80.0919 25.9821C84.5401 34.1739 82.2276 44.5584 75.0179 49.8052L58.1728 18.7494C61.8007 16.8914 65.8952 16.4851 69.8307 17.6022V17.606ZM48 13.5665L84.9609 81.7186H63.3352L37.1836 33.5081L48 13.5665ZM11.0391 81.7149L33.5028 40.3046L55.9664 81.7149H11.0391Z" stroke="black"/>
</svg>
